# xmcd CD database file
#
# Track frame offsets:
#	150
#	21028
#	40294
#	57691
#	70531
#	79120
#	88756
#	104522
#	137094
#	159658
#	166011
#	182867
#	187624
#	199793
#	210423
#	225120
#	236116
#	255837
#	273473
#	290610
#	299930
#
# Disc length: 4341 seconds
#
# Revision: 0
# Processed by: cddbd v1.5.2PL0 Copyright (c) Steve Scherf et al.
# Submitted via: CDex 1.50
#
DISCID=2a10f315
DTITLE=diverse - Jazz-Lyrik-Prosa
DYEAR=1995
DGENRE=Jazz
TTITLE0=Die Kuh im Propeller, M-Krug
TTITLE1=My Bonnie is over the ocean, Jazz-Optimisten
TTITLE2=Ode an die Seeaalsuppe, E-Esche
TTITLE3=When the Saints go marchin'in, M-Krug, Jazz-Optimisten
TTITLE4=Zerstörtes Liebesglück, M-Krug
TTITLE5=Zwei Seelen, M-Krug
TTITLE6=Die Oliven gedeihn, Jazz-Optimisten
TTITLE7=Ein älterer aber leicht besoffener Herr, G-E-Schäfer
TTITLE8=Die Ballade vom Briefträger W.L.Moore, M-Krug, Jazz-Optimisten
TTITLE9=Anekdote, E-Esche
TTITLE10=We shall overcome, M-Krug
TTITLE11=Die arme Frau, A-Bürger
TTITLE12=My funny valentine, M-Krug, Jazz-Optimisten
TTITLE13=Der Engel, E-Esche
TTITLE14=Tiger rag, Jazz-Optimisten
TTITLE15=Die sieben Sachen, M-Krug
TTITLE16=A foggy day, M-Krug, Jazz-Optimisten
TTITLE17=Der Hase im Rausch, E-Esche
TTITLE18=Mackie Messer, Jazz-Optimisten
TTITLE19=Der Flaschenzug, M-Krug
TTITLE20=Neuer Abschiedsblues, M-Krug, Jazz-Optimisten
EXTD=YEAR: 1995
EXTT0=
EXTT1=
EXTT2=
EXTT3=
EXTT4=
EXTT5=
EXTT6=
EXTT7=
EXTT8=
EXTT9=
EXTT10=
EXTT11=
EXTT12=
EXTT13=
EXTT14=
EXTT15=
EXTT16=
EXTT17=
EXTT18=
EXTT19=
EXTT20=
PLAYORDER=
